<svg width="40" height="40" viewBox="0 0 40 40">
<path d="M30.2221 16.6377C30.2235 16.6443 30.2248 16.651 30.2258 16.6581C30.231 16.6955 30.2336 16.7342 30.2336 16.7735V23.0603C30.2336 23.099 30.231 23.1377 30.2258 23.1764C30.2249 23.1822 30.2237 23.1881 30.2225 23.1941L30.2214 23.1995C30.2204 23.2044 30.2195 23.2094 30.2187 23.2144C30.2142 23.2396 30.2097 23.2641 30.2033 23.2886C30.2022 23.2928 30.2009 23.297 30.1995 23.3012L30.1968 23.3093L30.1945 23.3158C30.1926 23.3212 30.1908 23.3265 30.1891 23.3318L30.1861 23.3409C30.18 23.3592 30.1737 23.3781 30.1665 23.3969C30.1607 23.4111 30.1536 23.4253 30.1465 23.4394C30.1375 23.4594 30.1278 23.4788 30.1162 23.4988C30.1147 23.5015 30.1131 23.5042 30.1114 23.5069C30.1089 23.5111 30.1063 23.5152 30.1037 23.5194L30.0996 23.5258C30.0968 23.5303 30.0939 23.5349 30.0911 23.5394C30.0795 23.5581 30.0672 23.5755 30.0537 23.5929C30.044 23.6064 30.0337 23.6193 30.0234 23.6316C30.0092 23.6477 29.9944 23.6645 29.9789 23.6793L29.9782 23.68C29.9669 23.692 29.9561 23.7034 29.9441 23.7141C29.9273 23.729 29.9105 23.7431 29.8938 23.7567L29.8816 23.7661C29.8761 23.7703 29.8707 23.7745 29.8652 23.7786L29.8614 23.7815L29.8538 23.787C29.8512 23.7886 29.8488 23.7905 29.8464 23.7925C29.844 23.7944 29.8415 23.7963 29.839 23.798L20.4088 30.0848C20.2598 30.1841 20.0883 30.2337 19.9168 30.2337C19.7453 30.2337 19.5737 30.1841 19.4248 30.0848L9.99524 23.798C9.99267 23.7964 9.99027 23.7944 9.98787 23.7925C9.98545 23.7906 9.98299 23.7886 9.98041 23.787C9.96622 23.7773 9.95333 23.767 9.94043 23.7567C9.92302 23.7431 9.90626 23.729 9.89014 23.7141C9.87788 23.7032 9.86628 23.6916 9.85467 23.6793C9.8392 23.6645 9.82437 23.6477 9.81083 23.6316C9.79986 23.6193 9.78955 23.6064 9.77987 23.5929C9.76698 23.5755 9.75473 23.5581 9.74312 23.5394C9.73409 23.5258 9.72571 23.5123 9.71733 23.4988C9.70637 23.4788 9.6967 23.4594 9.68702 23.4394C9.68488 23.4347 9.68266 23.43 9.68044 23.4253C9.67599 23.4158 9.67155 23.4063 9.66768 23.3969C9.65955 23.3771 9.65299 23.3574 9.64659 23.3381L9.64447 23.3318L9.64028 23.319C9.63697 23.309 9.63363 23.2989 9.63093 23.2886C9.62448 23.2641 9.61996 23.2396 9.61545 23.2144L9.61332 23.2042C9.6113 23.1947 9.60931 23.1854 9.60836 23.1764C9.6032 23.1377 9.59998 23.099 9.59998 23.0603V16.7735C9.59998 16.7342 9.6032 16.6955 9.60836 16.6581C9.60931 16.6481 9.61132 16.6388 9.61334 16.6294L9.61545 16.6194C9.61996 16.5942 9.62448 16.5691 9.63093 16.5452C9.63363 16.5349 9.63697 16.5248 9.64028 16.5148L9.64447 16.502C9.65156 16.4801 9.65865 16.4588 9.66768 16.4376C9.67334 16.4231 9.68024 16.4086 9.68656 16.3953L9.68702 16.3944C9.6967 16.3737 9.70637 16.3544 9.71733 16.3357C9.72571 16.3215 9.73409 16.308 9.74312 16.2944C9.75473 16.2757 9.76698 16.2577 9.77987 16.2402C9.78955 16.2274 9.79986 16.2145 9.81083 16.2022C9.82437 16.1854 9.8392 16.1693 9.85467 16.1538L9.86162 16.1468C9.87094 16.1374 9.88033 16.1279 9.89014 16.1197C9.90626 16.1048 9.92302 16.0907 9.94043 16.0771C9.95332 16.0668 9.96623 16.0565 9.98041 16.0468C9.98299 16.0452 9.9854 16.0433 9.98782 16.0413C9.99024 16.0394 9.99266 16.0375 9.99524 16.0358L19.4248 9.74905C19.7233 9.55045 20.1109 9.55045 20.4088 9.74905L29.839 16.0358C29.8415 16.0374 29.8439 16.0394 29.8463 16.0413C29.8488 16.0432 29.8512 16.0452 29.8538 16.0468C29.8632 16.0535 29.8723 16.0606 29.8816 16.0677L29.8938 16.0771C29.9105 16.0907 29.9273 16.1048 29.9441 16.1197C29.9528 16.127 29.9609 16.1354 29.969 16.1438C29.9723 16.1471 29.9756 16.1505 29.9789 16.1538C29.9944 16.1693 30.0092 16.1854 30.0234 16.2022C30.0337 16.2145 30.044 16.2274 30.0537 16.2402C30.0672 16.2577 30.0795 16.2757 30.0911 16.2944L30.0981 16.3056C30.1043 16.3154 30.1106 16.3254 30.1162 16.3357C30.1278 16.3544 30.1375 16.3737 30.1465 16.3944C30.1536 16.4079 30.1607 16.4227 30.1665 16.4376C30.1749 16.4588 30.182 16.4801 30.1891 16.502L30.1905 16.5063C30.1918 16.5102 30.1931 16.5141 30.1945 16.518C30.1977 16.5269 30.2008 16.536 30.2033 16.5452C30.2097 16.5691 30.2142 16.5942 30.2187 16.6194C30.2197 16.6256 30.2209 16.6316 30.2221 16.6377ZM27.7505 16.7748L20.8034 12.1438V16.2789L24.6477 18.8504L27.7505 16.7748ZM19.0302 12.1438V16.2789L15.1865 18.8504L12.0831 16.7748L19.0302 12.1438ZM13.5919 19.9169L11.3732 18.4332V21.4006L13.5919 19.9169ZM19.0302 27.6899L12.0831 23.059L15.1865 20.984L19.0302 23.5548V27.6899ZM16.7811 19.9169L19.9168 22.0144L23.0531 19.9169L19.9168 17.8194L16.7811 19.9169ZM20.8034 27.6899V23.5548L24.6477 20.984L27.7505 23.059L20.8034 27.6899ZM26.2423 19.9169L28.4604 21.4006V18.4332L26.2423 19.9169Z"/>
</svg>
