<svg width="25" height="25" viewBox="0 0 16 16" fill="none">
<path d="M4 1.6C4 0.716344 4.71634 0 5.6 0H10.4C11.2837 0 12 0.716344 12 1.6V3.2H13.5917C13.5967 3.19995 13.6016 3.19995 13.6066 3.2H15.2C15.6418 3.2 16 3.55817 16 4C16 4.44183 15.6418 4.8 15.2 4.8H14.3449L13.651 14.514C13.5912 15.3513 12.8945 16 12.0551 16H3.9449C3.10547 16 2.40877 15.3513 2.34896 14.514L1.6551 4.8H0.8C0.358172 4.8 0 4.44183 0 4C0 3.55817 0.358172 3.2 0.8 3.2H2.3934C2.39836 3.19995 2.40331 3.19995 2.40826 3.2H4V1.6ZM5.6 3.2H10.4V1.6H5.6V3.2ZM3.25918 4.8L3.9449 14.4H12.0551L12.7408 4.8H3.25918ZM6.4 6.4C6.84183 6.4 7.2 6.75817 7.2 7.2V12C7.2 12.4418 6.84183 12.8 6.4 12.8C5.95817 12.8 5.6 12.4418 5.6 12V7.2C5.6 6.75817 5.95817 6.4 6.4 6.4ZM9.6 6.4C10.0418 6.4 10.4 6.75817 10.4 7.2V12C10.4 12.4418 10.0418 12.8 9.6 12.8C9.15817 12.8 8.8 12.4418 8.8 12V7.2C8.8 6.75817 9.15817 6.4 9.6 6.4Z"/>
</svg>
