<svg width="52" height="40" viewBox="0 0 52 40" fill="none" xmlns="http://www.w3.org/2000/svg">
<path fill-rule="evenodd" clip-rule="evenodd" d="M8.28264 18.0956C9.30307 14.2099 11.6595 9.23556 18.3803 5.0385C18.9273 4.69689 19.5032 4.36043 20.1097 4.03012L17.5157 0C7.13701 4.53608 0 13.7106 0 23.9468C0 29.7638 1.60634 33.3523 4.59824 36.5519C6.48344 38.5669 9.46373 40 12.5805 40C15.2769 40 17.8628 38.9216 19.7695 37.0019C21.6761 35.0822 22.7472 32.4786 22.7472 29.7638C22.7472 24.3796 18.6166 20.0483 13.3764 19.5598C12.215 19.4512 11.0399 19.5012 9.9532 19.7211C9.16736 19.8802 8.42779 20.1282 7.77315 20.4694C7.9002 19.7432 8.05947 18.9455 8.28264 18.0956ZM16.78 2.55225C7.81211 7.04118 2 15.1804 2 23.9468C2 29.2858 3.43301 32.3776 6.05906 35.1859C7.58531 36.817 10.0449 38 12.5805 38C14.7421 38 16.8178 37.1356 18.3504 35.5925C19.8835 34.049 20.7472 31.9526 20.7472 29.7638C20.7472 25.4467 17.4375 21.947 13.1908 21.5512C11.4585 21.3892 9.82658 21.6545 8.69757 22.2429L5.10485 24.1156L5.80308 20.1247C6.20042 17.8536 6.91951 14.7833 8.88531 11.5666C10.6093 8.74547 13.2404 5.89501 17.2977 3.35661L16.78 2.55225ZM37.3303 18.0956C38.3507 14.2099 40.7071 9.23556 47.4279 5.0385C47.9749 4.69689 48.5509 4.36043 49.1573 4.03012L46.5634 0C36.1847 4.53608 29.0477 13.7106 29.0477 23.9468C29.0477 29.7638 30.654 33.3523 33.6459 36.5519C35.5311 38.5669 38.5114 40 41.6282 40C44.3246 40 46.9105 38.9216 48.8171 37.0019C50.7237 35.0822 51.7949 32.4786 51.7949 29.7638C51.7949 24.3796 47.6643 20.0483 42.4241 19.5598C41.2626 19.4512 40.0875 19.5012 39.0009 19.7211C38.215 19.8802 37.4754 20.1282 36.8208 20.4694C36.9479 19.7432 37.1071 18.9455 37.3303 18.0956ZM35.1067 35.1859C36.633 36.817 39.0926 38 41.6282 38C43.7897 38 45.8655 37.1356 47.3981 35.5925C48.9312 34.049 49.7949 31.9526 49.7949 29.7638C49.7949 25.4467 46.4852 21.947 42.2385 21.5512C40.5062 21.3892 38.8742 21.6545 37.7452 22.2429L34.1525 24.1156L34.8507 20.1247C35.2481 17.8536 35.9672 14.7833 37.933 11.5666C39.657 8.74547 42.2881 5.89501 46.3454 3.35661L45.8277 2.55225C36.8598 7.04118 31.0477 15.1804 31.0477 23.9468C31.0477 29.2858 32.4807 32.3776 35.1067 35.1859Z" fill="#0000B8"/>
</svg>
