<svg width="40" height="40" viewBox="0 0 40 40">
<path d="M20.0526 9.19995C13.8356 9.19995 8.80005 14.211 8.80005 20.3978C8.80005 25.3528 12.0211 29.538 16.494 31.0217C17.0566 31.1197 17.2676 30.7838 17.2676 30.4898C17.2676 30.2239 17.2535 29.3421 17.2535 28.4042C14.4263 28.9221 13.6949 27.7184 13.4699 27.0885C13.3433 26.7666 12.7947 25.7727 12.3165 25.5068C11.9226 25.2968 11.36 24.7789 12.3024 24.7649C13.1885 24.7509 13.8215 25.5768 14.0325 25.9127C15.0452 27.6064 16.6628 27.1305 17.3098 26.8365C17.4082 26.1087 17.7036 25.6188 18.0271 25.3388C15.5234 25.0589 12.9072 24.0931 12.9072 19.8099C12.9072 18.5921 13.3433 17.5843 14.0606 16.8005C13.9481 16.5205 13.5542 15.3728 14.1731 13.8331C14.1731 13.8331 15.1155 13.5391 17.2676 14.9808C18.1678 14.7289 19.1243 14.6029 20.0807 14.6029C21.0372 14.6029 21.9937 14.7289 22.8939 14.9808C25.0459 13.5251 25.9883 13.8331 25.9883 13.8331C26.6072 15.3728 26.2134 16.5205 26.1008 16.8005C26.8182 17.5843 27.2542 18.5781 27.2542 19.8099C27.2542 24.1071 24.6239 25.0589 22.1202 25.3388C22.5281 25.6888 22.8798 26.3606 22.8798 27.4104C22.8798 28.9081 22.8657 30.1119 22.8657 30.4898C22.8657 30.7838 23.0767 31.1337 23.6393 31.0217C28.0841 29.538 31.3051 25.3388 31.3051 20.3978C31.3051 14.211 26.2696 9.19995 20.0526 9.19995Z"/>
</svg>
