<svg width="16" height="16" viewBox="0 0 16 16" fill="none" xmlns="http://www.w3.org/2000/svg">
<path d="M8.15995 3.09334C9.66217 3.09334 10.6755 3.74223 11.2533 4.28445L13.5111 2.08C12.1244 0.791112 10.32 0 8.15995 0C5.03105 0 2.32882 1.79556 1.01327 4.4089L3.59994 6.41779C4.24883 4.4889 6.04439 3.09334 8.15995 3.09334Z" fill="#EA4335"/>
<path d="M15.8399 8.17779C15.8399 7.52001 15.7866 7.04001 15.6711 6.54223H8.15993V9.51113H12.5688C12.4799 10.2489 11.9999 11.36 10.9333 12.1067L13.4577 14.0622C14.9688 12.6667 15.8399 10.6133 15.8399 8.17779Z" fill="#4285F4"/>
<path d="M3.60881 9.58222C3.43992 9.08444 3.34214 8.55111 3.34214 8C3.34214 7.44888 3.43994 6.91557 3.59994 6.41779L1.01327 4.4089C0.471043 5.49334 0.159912 6.7111 0.159912 8C0.159912 9.28889 0.471024 10.5067 1.01325 11.5911L3.60881 9.58222Z" fill="#FBBC05"/>
<path d="M8.15991 16C10.3199 16 12.1333 15.2889 13.4577 14.0622L10.9333 12.1067C10.2577 12.5778 9.35102 12.9067 8.15991 12.9067C6.04435 12.9067 4.24881 11.5111 3.60881 9.58222L1.02212 11.5911C2.33768 14.2044 5.03101 16 8.15991 16Z" fill="#34A853"/>
</svg>
