<svg width="40" height="40" viewBox="0 0 40 40">
<path d="M10.8153 9.19995C9.92343 9.19995 9.19995 9.9014 9.19995 10.7656V29.4911C9.19995 30.3554 9.92351 31.0562 10.8153 31.0562H29.4409C30.3331 31.0562 31.0562 30.3553 31.0562 29.4909V10.7656C31.0562 9.9014 30.3331 9.19995 29.4409 9.19995H10.8153ZM15.8417 17.6511V27.4908H12.5711V17.6511H15.8417ZM16.0573 14.608C16.0573 15.5523 15.3474 16.3078 14.2071 16.3078L14.1856 16.3078C13.088 16.3078 12.3783 15.5522 12.3783 14.6079C12.3783 13.6422 13.1094 12.9077 14.2288 12.9077C15.3474 12.9077 16.0359 13.6422 16.0573 14.608ZM20.9223 27.4908H17.652C17.652 27.4908 17.6949 18.5745 17.6522 17.6514H20.9226V19.0442C21.3573 18.3739 22.1354 17.4204 23.8702 17.4204C26.0219 17.4204 27.6352 18.8268 27.6352 21.849V27.4908H24.3649V22.2274C24.3649 20.9045 23.8914 20.0022 22.7082 20.0022C21.8045 20.0022 21.2664 20.6107 21.0301 21.1985C20.9437 21.4083 20.9223 21.7028 20.9223 21.9964V27.4908Z"/>
</svg>
