<svg width="40" height="40" viewBox="0 0 40 40">
<path d="M23.3589 7.65702L9.50627 8.67638C8.38927 8.77304 8 9.50121 8 10.3742V25.5144C8 26.1946 8.24264 26.776 8.82615 27.5531L12.0825 31.7749C12.6174 32.4548 13.1035 32.6002 14.1249 32.5515L30.2118 31.5808C31.5724 31.4842 31.9616 30.8529 31.9616 29.7854V12.7522C31.9616 12.2004 31.7431 12.041 31.099 11.5711C31.0635 11.5452 31.0268 11.5185 30.9888 11.4906L26.5668 8.38499C25.4977 7.60889 25.06 7.51123 23.3589 7.65702ZM14.4896 12.4728C13.1762 12.5614 12.8778 12.5816 12.1319 11.9761L10.2352 10.4718C10.0418 10.2773 10.1388 10.0346 10.6245 9.98651L23.9422 9.01587C25.0598 8.91861 25.6429 9.30746 26.0806 9.64699L28.3648 11.2971C28.462 11.3454 28.7046 11.6362 28.4129 11.6362L14.6592 12.4614L14.4896 12.4728ZM12.9577 29.6396V15.179C12.9577 14.5483 13.1521 14.2569 13.735 14.208L29.5307 13.2863C30.0664 13.2377 30.309 13.5777 30.309 14.208V28.5715C30.309 29.2028 30.2116 29.7373 29.3364 29.7854L14.2211 30.6594C13.3463 30.7075 12.9577 30.4167 12.9577 29.6396ZM27.8795 15.9547C27.9764 16.3919 27.8795 16.8286 27.4412 16.8778L26.7129 17.0228V27.6985C26.0806 28.0381 25.4975 28.2322 25.0116 28.2322C24.2336 28.2322 24.0388 27.9894 23.4561 27.2619L18.6923 19.7889V27.0193L20.1997 27.3592C20.1997 27.3592 20.1997 28.2322 18.9835 28.2322L15.6307 28.4266C15.5333 28.2322 15.6307 27.7474 15.9708 27.6502L16.8457 27.4079V17.848L15.6309 17.7507C15.5335 17.3136 15.7762 16.6832 16.4571 16.6343L20.0539 16.3921L25.0116 23.9624V17.2654L23.7476 17.1204C23.6505 16.586 24.0388 16.1979 24.5249 16.1498L27.8795 15.9547Z"/>
</svg>
