<svg width="16" height="16" viewBox="0 0 16 16" fill="none">
<path d="M7.99999 1.6C6.23268 1.6 4.79999 3.03269 4.79999 4.8C4.79999 6.56731 6.23268 8 7.99999 8C9.7673 8 11.2 6.56731 11.2 4.8C11.2 3.03269 9.7673 1.6 7.99999 1.6ZM3.19999 4.8C3.19999 2.14903 5.34902 0 7.99999 0C10.651 0 12.8 2.14903 12.8 4.8C12.8 7.45097 10.651 9.6 7.99999 9.6C5.34902 9.6 3.19999 7.45097 3.19999 4.8ZM4.79999 12.8C3.4745 12.8 2.39999 13.8745 2.39999 15.2C2.39999 15.6418 2.04182 16 1.59999 16C1.15816 16 0.799988 15.6418 0.799988 15.2C0.799988 12.9909 2.59085 11.2 4.79999 11.2H11.2C13.4091 11.2 15.2 12.9909 15.2 15.2C15.2 15.6418 14.8418 16 14.4 16C13.9582 16 13.6 15.6418 13.6 15.2C13.6 13.8745 12.5255 12.8 11.2 12.8H4.79999Z"/>
</svg>
