<svg width="25" height="26" viewBox="0 0 25 26" fill="none" xmlns="http://www.w3.org/2000/svg">
<path fill-rule="evenodd" clip-rule="evenodd" d="M18.2037 1.36358C20.737 2.67536 22.6984 4.73462 24.0468 7.31909L13.7089 13.2746L23.7421 18.9776C22.3346 21.459 20.1324 23.3941 17.4907 24.471C14.8489 25.5479 11.9215 25.7037 9.18035 24.9135C6.43919 24.1233 4.04399 22.433 2.3809 20.1151C0.717799 17.7972 -0.116298 14.9868 0.0130687 12.137C0.142435 9.2871 1.22773 6.56384 3.09399 4.40617C4.96025 2.2485 7.49873 0.782162 10.3002 0.243533C13.1017 -0.295096 15.6703 0.0517949 18.2037 1.36358ZM13.0347 8.55513C14.1518 8.55513 15.0574 7.64957 15.0574 6.5325C15.0574 5.41544 14.1518 4.50988 13.0347 4.50988C11.9177 4.50988 11.0121 5.41544 11.0121 6.5325C11.0121 7.64957 11.9177 8.55513 13.0347 8.55513Z" fill="#0000B8"/>
</svg>

