<svg width="40" height="40" viewBox="0 0 40 40" fill="none">
<path fill-rule="evenodd" clip-rule="evenodd" d="M30.2222 16.6375C30.2236 16.6442 30.225 16.6509 30.226 16.658C30.2311 16.6954 30.2337 16.734 30.2337 16.7734V23.0602C30.2337 23.0989 30.2311 23.1376 30.226 23.1762C30.225 23.182 30.2238 23.188 30.2226 23.194L30.2215 23.1993C30.2206 23.2043 30.2196 23.2093 30.2189 23.2143C30.2144 23.2394 30.2098 23.2639 30.2034 23.2884C30.2023 23.2927 30.201 23.2969 30.1996 23.3011L30.1969 23.3091L30.1946 23.3157C30.1928 23.321 30.1909 23.3263 30.1892 23.3316L30.1862 23.3407C30.1801 23.3591 30.1738 23.378 30.1666 23.3968C30.1608 23.4109 30.1537 23.4251 30.1467 23.4393C30.1376 23.4593 30.128 23.4787 30.1163 23.4986C30.1148 23.5014 30.1132 23.5041 30.1115 23.5068C30.109 23.5109 30.1064 23.5151 30.1038 23.5193L30.0998 23.5257C30.0969 23.5302 30.094 23.5347 30.0912 23.5393C30.0796 23.558 30.0673 23.5754 30.0538 23.5928C30.0441 23.6063 30.0338 23.6192 30.0235 23.6315C30.0093 23.6476 29.9945 23.6644 29.979 23.6792L29.9784 23.6799C29.967 23.6919 29.9562 23.7032 29.9442 23.714C29.9274 23.7288 29.9107 23.743 29.8939 23.7566L29.8817 23.766C29.8762 23.7702 29.8708 23.7743 29.8654 23.7784L29.8615 23.7813L29.8539 23.7869C29.8513 23.7885 29.8489 23.7904 29.8465 23.7923C29.8441 23.7943 29.8417 23.7962 29.8391 23.7978L20.4089 30.0846C20.2599 30.1839 20.0884 30.2336 19.9169 30.2336C19.7454 30.2336 19.5739 30.1839 19.4249 30.0846L9.99536 23.7978C9.9928 23.7962 9.99039 23.7943 9.98799 23.7924C9.98557 23.7904 9.98311 23.7885 9.98053 23.7869C9.96634 23.7772 9.95345 23.7669 9.94055 23.7566C9.92314 23.743 9.90638 23.7288 9.89026 23.714C9.87801 23.703 9.8664 23.6914 9.85479 23.6792C9.83932 23.6644 9.82449 23.6476 9.81095 23.6315C9.79999 23.6192 9.78967 23.6063 9.78 23.5928C9.7671 23.5754 9.75485 23.558 9.74324 23.5393C9.73422 23.5257 9.72583 23.5122 9.71745 23.4986C9.70649 23.4787 9.69682 23.4593 9.68715 23.4393C9.685 23.4346 9.68278 23.4299 9.68056 23.4251C9.67612 23.4157 9.67167 23.4062 9.6678 23.3968C9.65967 23.377 9.65311 23.3573 9.64671 23.338L9.64459 23.3316L9.6404 23.3188C9.63709 23.3089 9.63376 23.2988 9.63105 23.2884C9.6246 23.2639 9.62009 23.2394 9.61557 23.2143L9.61344 23.2041C9.61143 23.1946 9.60943 23.1853 9.60848 23.1762C9.60332 23.1376 9.6001 23.0989 9.6001 23.0602V16.7734C9.6001 16.734 9.60332 16.6954 9.60848 16.658C9.60943 16.648 9.61144 16.6387 9.61346 16.6293L9.61557 16.6193C9.62009 16.5941 9.6246 16.569 9.63105 16.5451C9.63376 16.5347 9.63709 16.5247 9.6404 16.5147L9.64459 16.5019C9.65168 16.48 9.65877 16.4587 9.6678 16.4374C9.67347 16.423 9.68036 16.4085 9.68668 16.3952L9.68715 16.3942C9.69682 16.3736 9.70649 16.3543 9.71745 16.3356C9.72583 16.3214 9.73422 16.3078 9.74324 16.2943C9.75485 16.2756 9.7671 16.2575 9.78 16.2401C9.78967 16.2272 9.79999 16.2143 9.81095 16.2021C9.82449 16.1853 9.83932 16.1692 9.85479 16.1537L9.86175 16.1467C9.87106 16.1373 9.88045 16.1278 9.89026 16.1195C9.90638 16.1047 9.92314 16.0905 9.94055 16.077C9.95344 16.0667 9.96635 16.0564 9.98053 16.0467C9.98311 16.0451 9.98553 16.0431 9.98795 16.0412C9.99036 16.0393 9.99278 16.0373 9.99536 16.0357L19.4249 9.74892C19.7235 9.55033 20.111 9.55033 20.4089 9.74892L29.8391 16.0357C29.8416 16.0373 29.8441 16.0393 29.8465 16.0412C29.8489 16.0431 29.8513 16.0451 29.8539 16.0467C29.8633 16.0534 29.8724 16.0605 29.8817 16.0676L29.8939 16.077C29.9107 16.0905 29.9274 16.1047 29.9442 16.1195C29.9529 16.1269 29.961 16.1352 29.9691 16.1436C29.9724 16.147 29.9757 16.1504 29.979 16.1537C29.9945 16.1692 30.0093 16.1853 30.0235 16.2021C30.0338 16.2143 30.0441 16.2272 30.0538 16.2401C30.0673 16.2575 30.0796 16.2756 30.0912 16.2943L30.0982 16.3055C30.1044 16.3153 30.1108 16.3253 30.1163 16.3356C30.128 16.3543 30.1376 16.3736 30.1467 16.3942C30.1537 16.4078 30.1608 16.4226 30.1666 16.4374C30.175 16.4587 30.1821 16.48 30.1892 16.5019L30.1906 16.5061C30.1919 16.51 30.1933 16.5139 30.1946 16.5179C30.1978 16.5268 30.201 16.5358 30.2034 16.5451C30.2098 16.569 30.2144 16.5941 30.2189 16.6193C30.2198 16.6254 30.221 16.6315 30.2222 16.6375ZM27.7506 16.7747L20.8035 12.1437V16.2788L24.6478 18.8503L27.7506 16.7747ZM19.0303 12.1437V16.2788L15.1867 18.8503L12.0832 16.7747L19.0303 12.1437ZM13.5921 19.9168L11.3733 18.4331V21.4005L13.5921 19.9168ZM19.0303 27.6898L12.0832 23.0589L15.1867 20.9839L19.0303 23.5547V27.6898ZM16.7812 19.9168L19.9169 22.0143L23.0532 19.9168L19.9169 17.8192L16.7812 19.9168ZM20.8035 27.6898V23.5547L24.6478 20.9839L27.7506 23.0589L20.8035 27.6898ZM26.2424 19.9168L28.4605 21.4005V18.4331L26.2424 19.9168Z" fill="currentColor"/>
<!-- <rect x="0.5" y="0.5" width="39" height="39" rx="19.5" stroke="#0000B8"/> -->
</svg>
