<svg width="27" height="8" viewBox="0 0 28 8" fill="none">
<path d="M13.9998 7.33341C15.8408 7.33341 17.3332 5.84103 17.3332 4.00008C17.3332 2.15913 15.8408 0.666748 13.9998 0.666748C12.1589 0.666748 10.6665 2.15913 10.6665 4.00008C10.6665 5.84103 12.1589 7.33341 13.9998 7.33341Z" fill="white"/>
<path d="M3.99984 7.33341C5.84079 7.33341 7.33317 5.84103 7.33317 4.00008C7.33317 2.15913 5.84079 0.666748 3.99984 0.666748C2.15889 0.666748 0.666504 2.15913 0.666504 4.00008C0.666504 5.84103 2.15889 7.33341 3.99984 7.33341Z" fill="white"/>
<path d="M23.9998 7.33341C25.8408 7.33341 27.3332 5.84103 27.3332 4.00008C27.3332 2.15913 25.8408 0.666748 23.9998 0.666748C22.1589 0.666748 20.6665 2.15913 20.6665 4.00008C20.6665 5.84103 22.1589 7.33341 23.9998 7.33341Z" fill="white"/>
</svg>
