<svg width="25" height="25" viewBox="0 0 16 16" fill="none">
<path d="M11.194 0.246647C11.5229 -0.0822156 12.0561 -0.0822156 12.3849 0.246647L15.7534 3.61507C16.0822 3.94393 16.0822 4.47712 15.7534 4.80598L4.80598 15.7534C4.64806 15.9113 4.43387 16 4.21053 16H0.842105C0.377023 16 0 15.623 0 15.1579V11.7895C0 11.5661 0.0887215 11.3519 0.246647 11.194L8.66752 2.77314L11.194 0.246647ZM9.26316 4.55934L1.68421 12.1383V14.3158H3.86171L11.4407 6.73684L9.26316 4.55934ZM12.6316 5.54593L13.967 4.21053L11.7895 2.03302L10.4541 3.36842L12.6316 5.54593Z"/>
</svg>
