<svg width="40" height="40" viewBox="0 0 40 40" fill="none">
<path d="M20.1602 15.0933C21.6624 15.0933 22.6758 15.7422 23.2535 16.2845L25.5113 14.08C24.1246 12.7911 22.3202 12 20.1602 12C17.0313 12 14.3291 13.7956 13.0135 16.4089L15.6002 18.4178C16.2491 16.4889 18.0446 15.0933 20.1602 15.0933Z" fill="#EA4335"/>
<path d="M27.8402 20.1778C27.8402 19.52 27.7869 19.04 27.6713 18.5422H20.1602V21.5111H24.5691C24.4802 22.2489 24.0002 23.36 22.9335 24.1067L25.458 26.0622C26.9691 24.6667 27.8402 22.6133 27.8402 20.1778Z" fill="#4285F4"/>
<path d="M15.6091 21.5822C15.4402 21.0844 15.3424 20.5511 15.3424 20C15.3424 19.4489 15.4402 18.9156 15.6002 18.4178L13.0135 16.4089C12.4713 17.4933 12.1602 18.7111 12.1602 20C12.1602 21.2889 12.4713 22.5067 13.0135 23.5911L15.6091 21.5822Z" fill="#FBBC05"/>
<path d="M20.1602 28C22.3202 28 24.1335 27.2889 25.458 26.0622L22.9335 24.1067C22.258 24.5778 21.3513 24.9067 20.1602 24.9067C18.0446 24.9067 16.2491 23.5111 15.6091 21.5822L13.0224 23.5911C14.3379 26.2044 17.0313 28 20.1602 28Z" fill="#34A853"/>
</svg>
