<svg width="25" height="25" viewBox="0 0 25 25" fill="none" xmlns="http://www.w3.org/2000/svg">
<path d="M10.4167 14.5833C10.7561 14.9298 11.1613 15.205 11.6085 15.3929C12.0556 15.5808 12.5358 15.6776 13.0208 15.6776C13.5059 15.6776 13.986 15.5808 14.4332 15.3929C14.8804 15.205 15.2855 14.9298 15.625 14.5833L19.7917 10.4167C20.4823 9.726 20.8703 8.78926 20.8703 7.81251C20.8703 6.83575 20.4823 5.89901 19.7917 5.20834C19.101 4.51767 18.1643 4.12966 17.1875 4.12966C16.2107 4.12966 15.274 4.51767 14.5833 5.20834L14.0625 5.72917" stroke="black" stroke-width="2" stroke-linecap="round" stroke-linejoin="round"/>
<path d="M14.5833 10.4167C14.2439 10.0702 13.8387 9.79497 13.3915 9.60707C12.9444 9.41917 12.4642 9.32238 11.9792 9.32238C11.4941 9.32238 11.014 9.41917 10.5668 9.60707C10.1196 9.79497 9.71445 10.0702 9.375 10.4167L5.20833 14.5833C4.51766 15.274 4.12965 16.2107 4.12965 17.1875C4.12965 18.1642 4.51766 19.101 5.20833 19.7917C5.899 20.4823 6.83574 20.8703 7.8125 20.8703C8.78925 20.8703 9.72599 20.4823 10.4167 19.7917L10.9375 19.2708" stroke="black" stroke-width="2" stroke-linecap="round" stroke-linejoin="round"/>
</svg>
