<svg width="35" height="35" viewBox="0 0 35 35" fill="none">
<path d="M27.2896 24.9334L34.428 32.0701L32.0696 34.4284L24.933 27.2901C22.2775 29.4188 18.9746 30.5766 15.5713 30.5718C7.29129 30.5718 0.571289 23.8518 0.571289 15.5718C0.571289 7.29178 7.29129 0.571777 15.5713 0.571777C23.8513 0.571777 30.5713 7.29178 30.5713 15.5718C30.5761 18.9751 29.4183 22.278 27.2896 24.9334ZM23.9463 23.6968C26.0615 21.5216 27.2427 18.6058 27.238 15.5718C27.238 9.12511 22.0163 3.90511 15.5713 3.90511C9.12462 3.90511 3.90462 9.12511 3.90462 15.5718C3.90462 22.0168 9.12462 27.2384 15.5713 27.2384C18.6053 27.2432 21.5211 26.062 23.6963 23.9468L23.9463 23.6968Z" fill="currentColor"/>
</svg>
