<svg width="40" height="40" viewBox="0 0 40 40" fill="none" >
<path d="M21.4395 19.8C21.4395 23.2216 18.6167 26 15.1198 26C11.6228 26 8.8 23.2216 8.8 19.8C8.8 16.3784 11.6228 13.6 15.1198 13.6C18.6167 13.6 21.4395 16.3784 21.4395 19.8ZM28.3631 19.8C28.3631 23.0163 26.9447 25.6305 25.2033 25.6305C23.4618 25.6305 22.0434 23.0163 22.0434 19.8C22.0434 16.5837 23.4618 13.9695 25.2033 13.9695C26.9447 13.9695 28.3631 16.57 28.3631 19.8ZM31.2 19.8C31.2 22.6879 30.7085 25.0283 30.0905 25.0283C29.4726 25.0283 28.9811 22.6879 28.9811 19.8C28.9811 16.9121 29.4726 14.5717 30.0905 14.5717C30.7085 14.5717 31.2 16.9121 31.2 19.8Z" fill="currentColor"/>
<!-- <rect x="0.5" y="0.5" width="39" height="39" rx="19.5" stroke="#0000B8"/> -->
</svg>
