<svg width="40" height="40" viewBox="0 0 40 40" fill="none">
<path fill-rule="evenodd" clip-rule="evenodd" d="M23.3589 7.6569L9.50627 8.67626C8.38927 8.77292 8 9.50109 8 10.3741V25.5143C8 26.1945 8.24264 26.7759 8.82615 27.553L12.0825 31.7748C12.6174 32.4546 13.1035 32.6001 14.1249 32.5514L30.2118 31.5807C31.5724 31.4841 31.9616 30.8528 31.9616 29.7853V12.7521C31.9616 12.2003 31.7431 12.0409 31.099 11.571C31.0635 11.5451 31.0268 11.5183 30.9888 11.4905L26.5668 8.38487C25.4977 7.60876 25.06 7.5111 23.3589 7.6569ZM14.4896 12.4727C13.1762 12.5613 12.8778 12.5815 12.1319 11.976L10.2352 10.4717C10.0418 10.2772 10.1388 10.0345 10.6245 9.98639L23.9422 9.01575C25.0598 8.91849 25.6429 9.30734 26.0806 9.64686L28.3648 11.2969C28.462 11.3453 28.7046 11.6361 28.4129 11.6361L14.6592 12.4613L14.4896 12.4727ZM12.9577 29.6394V15.1789C12.9577 14.5482 13.1521 14.2568 13.735 14.2078L29.5307 13.2862C30.0664 13.2376 30.309 13.5775 30.309 14.2078V28.5713C30.309 29.2027 30.2116 29.7372 29.3364 29.7853L14.2211 30.6592C13.3463 30.7073 12.9577 30.4166 12.9577 29.6394ZM27.8795 15.9546C27.9764 16.3917 27.8795 16.8285 27.4412 16.8776L26.7129 17.0226V27.6984C26.0806 28.038 25.4975 28.2321 25.0116 28.2321C24.2336 28.2321 24.0388 27.9893 23.4561 27.2618L18.6923 19.7887V27.0191L20.1997 27.3591C20.1997 27.3591 20.1997 28.2321 18.9835 28.2321L15.6307 28.4265C15.5333 28.2321 15.6307 27.7473 15.9708 27.6501L16.8457 27.4078V17.8479L15.6309 17.7506C15.5335 17.3134 15.7762 16.6831 16.4571 16.6342L20.0539 16.3919L25.0116 23.9623V17.2653L23.7476 17.1203C23.6505 16.5859 24.0388 16.1978 24.5249 16.1497L27.8795 15.9546Z" fill="currentColor"/>
<!-- <rect x="0.5" y="0.5" width="39" height="39" rx="19.5" stroke="#0000B8"/> -->
</svg>
