<svg width="27" height="27" viewBox="0 0 27 27" fill="none" xmlns="http://www.w3.org/2000/svg">
<path d="M19.1305 18.647H21.2891C21.8616 18.647 22.4106 18.4195 22.8154 18.0147C23.2202 17.6099 23.4477 17.0609 23.4477 16.4884V12.1713C23.4477 11.5988 23.2202 11.0498 22.8154 10.645C22.4106 10.2401 21.8616 10.0127 21.2891 10.0127H6.1792C5.60672 10.0127 5.05768 10.2401 4.65287 10.645C4.24806 11.0498 4.02065 11.5988 4.02065 12.1713V16.4884C4.02065 17.0609 4.24806 17.6099 4.65287 18.0147C5.05768 18.4195 5.60672 18.647 6.1792 18.647H8.33776" stroke="black" stroke-width="2.15856" stroke-linecap="round" stroke-linejoin="round"/>
<path d="M19.1305 10.0127V5.69561C19.1305 5.12313 18.9031 4.57409 18.4983 4.16928C18.0935 3.76447 17.5445 3.53706 16.972 3.53706H10.4963C9.92383 3.53706 9.37479 3.76447 8.96998 4.16928C8.56517 4.57409 8.33775 5.12313 8.33775 5.69561V10.0127" stroke="black" stroke-width="2.15856" stroke-linecap="round" stroke-linejoin="round"/>
<path d="M16.972 14.3298H10.4963C9.30417 14.3298 8.33775 15.2963 8.33775 16.4884V20.8055C8.33775 21.9977 9.30417 22.9641 10.4963 22.9641H16.972C18.1641 22.9641 19.1305 21.9977 19.1305 20.8055V16.4884C19.1305 15.2963 18.1641 14.3298 16.972 14.3298Z" stroke="black" stroke-width="2.15856" stroke-linecap="round" stroke-linejoin="round"/>
</svg>
