<svg width="14" height="16" viewBox="0 0 16 16" fill="none">
<path d="M8 1.6C7.55817 1.6 7.2 1.95817 7.2 2.4C7.2 3.7538 5.56319 4.43179 4.60591 3.47451C4.29349 3.16209 3.78696 3.16209 3.47454 3.47451C3.16212 3.78693 3.16212 4.29346 3.47454 4.60588C4.43186 5.5632 3.75378 7.2 2.4 7.2C1.95817 7.2 1.6 7.55817 1.6 8C1.6 8.44183 1.95817 8.8 2.4 8.8C3.75389 8.8 4.43171 10.4369 3.47448 11.3941C3.16207 11.7065 3.16207 12.2131 3.47448 12.5255C3.7869 12.8379 4.29344 12.8379 4.60585 12.5255C5.56312 11.5682 7.2 12.2461 7.2 13.6C7.2 14.0418 7.55817 14.4 8 14.4C8.44183 14.4 8.8 14.0418 8.8 13.6C8.8 12.2462 10.4368 11.5682 11.3941 12.5255C11.7066 12.8379 12.2131 12.8379 12.5255 12.5255C12.8379 12.2131 12.8379 11.7065 12.5255 11.3941C11.5682 10.4368 12.2462 8.8 13.6 8.8C14.0418 8.8 14.4 8.44183 14.4 8C14.4 7.55817 14.0418 7.2 13.6 7.2C12.2463 7.2 11.5681 5.56324 12.5255 4.60589C12.8379 4.29347 12.8379 3.78694 12.5255 3.47452C12.213 3.1621 11.7065 3.1621 11.3941 3.47452C10.4368 4.43183 8.8 3.75375 8.8 2.4C8.8 1.95817 8.44183 1.6 8 1.6ZM5.60653 2.22162C5.69779 0.979441 6.73452 0 8 0C9.26549 0 10.3022 0.979442 10.3935 2.22162C11.3364 1.40781 12.762 1.44832 13.6568 2.34315C14.5517 3.23799 14.5922 4.66364 13.7783 5.60653C15.0205 5.69776 16 6.7345 16 8C16 9.26548 15.0206 10.3022 13.7784 10.3935C14.5922 11.3364 14.5517 12.762 13.6569 13.6568C12.762 14.5517 11.3364 14.5922 10.3935 13.7783C10.3022 15.0205 9.2655 16 8 16C6.7345 16 5.69777 15.0205 5.60653 13.7783C4.66364 14.5922 3.23796 14.5517 2.34311 13.6569C1.44827 12.762 1.40778 11.3364 2.22162 10.3935C0.979439 10.3022 0 9.26548 0 8C0 6.7345 0.979466 5.69776 2.22167 5.60652C1.40783 4.66364 1.44833 3.23798 2.34316 2.34314C3.238 1.44831 4.66364 1.4078 5.60653 2.22162Z" />
<path d="M8 6.4C7.57565 6.4 7.16869 6.56857 6.86863 6.86863C6.56857 7.16869 6.4 7.57565 6.4 8C6.4 8.42435 6.56857 8.83131 6.86863 9.13137C7.16869 9.43143 7.57565 9.6 8 9.6C8.42435 9.6 8.83131 9.43143 9.13137 9.13137C9.43143 8.83131 9.6 8.42435 9.6 8C9.6 7.57565 9.43143 7.16869 9.13137 6.86863C8.83131 6.56857 8.42435 6.4 8 6.4ZM5.73726 5.73726C6.33737 5.13714 7.15131 4.8 8 4.8C8.84869 4.8 9.66263 5.13714 10.2627 5.73726C10.8629 6.33737 11.2 7.15131 11.2 8C11.2 8.84869 10.8629 9.66263 10.2627 10.2627C9.66263 10.8629 8.84869 11.2 8 11.2C7.15131 11.2 6.33737 10.8629 5.73726 10.2627C5.13714 9.66263 4.8 8.84869 4.8 8C4.8 7.15131 5.13714 6.33737 5.73726 5.73726Z"/>
</svg>

