<svg width="14" height="16" viewBox="0 0 16 16" fill="none">
<path fill-rule="evenodd" clip-rule="evenodd" d="M6.73684 14.7368C6.73684 14.2717 6.35982 13.8947 5.89474 13.8947H1.68421V2.10523H5.89474C6.35982 2.10523 6.73684 1.72821 6.73684 1.26313C6.73684 0.798043 6.35982 0.421021 5.89474 0.421021H1.68421C0.754047 0.421021 0 1.17507 0 2.10523V13.8947C0 14.8249 0.754047 15.5789 1.68421 15.5789H5.89474C6.35982 15.5789 6.73684 15.2019 6.73684 14.7368Z"/>
<path d="M15.7588 8.5899C15.8368 8.51046 15.8959 8.41938 15.9361 8.32231C15.977 8.22375 15.9997 8.11575 16 8.00249L16 7.99997L16 7.99744C15.9994 7.78277 15.9171 7.5683 15.7534 7.40451L12.3849 4.03609C12.0561 3.70723 11.5229 3.70723 11.194 4.03609C10.8652 4.36495 10.8652 4.89814 11.194 5.227L13.1249 7.15786H5.05263C4.58755 7.15786 4.21053 7.53489 4.21053 7.99997C4.21053 8.46505 4.58755 8.84207 5.05263 8.84207H13.1249L11.194 10.7729C10.8652 11.1018 10.8652 11.635 11.194 11.9638C11.5229 12.2927 12.0561 12.2927 12.3849 11.9638L15.7528 8.59603L15.7588 8.5899Z"/>
</svg>
