<!-- <svg width="56" height="50" viewBox="0 0 56 50" fill="none" xmlns="http://www.w3.org/2000/svg">
<circle cx="25" cy="25" r="24.5" stroke="#1613A7"/>
<circle cx="46.875" cy="38.6719" r="8.98438" fill="#1613A7"/>
</svg> -->
<svg width="119" height="27" viewBox="0 0 119 27" fill="none">
<path fill-rule="evenodd" clip-rule="evenodd" d="M18.2037 1.36358C20.737 2.67536 22.6984 4.73462 24.0468 7.31909L13.7089 13.2746L23.7421 18.9776C22.3346 21.459 20.1324 23.3941 17.4907 24.471C14.8489 25.5479 11.9215 25.7037 9.18035 24.9135C6.43919 24.1233 4.04399 22.433 2.3809 20.1151C0.717799 17.7972 -0.116298 14.9868 0.0130687 12.137C0.142435 9.2871 1.22773 6.56384 3.09399 4.40617C4.96025 2.2485 7.49873 0.782162 10.3002 0.243533C13.1017 -0.295096 15.6703 0.0517949 18.2037 1.36358ZM13.0347 8.55513C14.1518 8.55513 15.0574 7.64957 15.0574 6.5325C15.0574 5.41544 14.1518 4.50988 13.0347 4.50988C11.9177 4.50988 11.0121 5.41544 11.0121 6.5325C11.0121 7.64957 11.9177 8.55513 13.0347 8.55513Z" fill="#0000B8"/>
<path d="M39.2793 25.1099C38.9882 25.1901 38.578 25.257 38.0487 25.3105C37.5194 25.3908 36.9636 25.4309 36.3814 25.4309C35.1376 25.4309 34.2642 25.2169 33.7614 24.7889C33.285 24.3608 33.0468 23.585 33.0468 22.4614V0.751935C33.3379 0.698431 33.7481 0.631551 34.2774 0.551294C34.8332 0.471036 35.3757 0.430908 35.905 0.430908C37.096 0.430908 37.9561 0.63155 38.4854 1.03284C39.0147 1.43412 39.2793 2.22331 39.2793 3.40041V10.463H47.8143V0.751935C48.1054 0.698431 48.5156 0.631551 49.0449 0.551294C49.6007 0.471036 50.1565 0.430908 50.7122 0.430908C51.8767 0.430908 52.7236 0.644926 53.2529 1.07296C53.7822 1.501 54.0468 2.30357 54.0468 3.48067V25.1099C53.7557 25.1901 53.3455 25.257 52.8162 25.3105C52.2869 25.3908 51.7311 25.4309 51.1489 25.4309C49.905 25.4309 49.0317 25.2169 48.5289 24.7889C48.0525 24.3608 47.8143 23.585 47.8143 22.4614V15.4389H39.2793V25.1099Z" fill="#0000B8"/>
<path d="M88.0468 12.9309C88.0468 19.8345 82.4504 25.4309 75.5468 25.4309C68.6433 25.4309 63.0468 19.8345 63.0468 12.9309C63.0468 6.02735 68.6433 0.430908 75.5468 0.430908C82.4504 0.430908 88.0468 6.02735 88.0468 12.9309Z" fill="#0000B8"/>
<path d="M107.527 26.4309C105.88 26.4309 104.405 26.1982 103.104 25.7326C101.829 25.2671 100.739 24.6099 99.8362 23.7611C98.933 22.9122 98.2423 21.899 97.7641 20.7216C97.2859 19.5167 97.0468 18.175 97.0468 16.6963V0.759502C97.339 0.704737 97.7508 0.63628 98.2821 0.554131C98.84 0.471982 99.3979 0.430908 99.9557 0.430908C101.151 0.430908 102.001 0.636279 102.506 1.04702C103.037 1.45777 103.303 2.26556 103.303 3.4704V16.5731C103.303 18.0518 103.688 19.2018 104.459 20.0233C105.256 20.8174 106.278 21.2145 107.527 21.2145C108.802 21.2145 109.825 20.8174 110.595 20.0233C111.392 19.2018 111.791 18.0518 111.791 16.5731V0.759502C112.083 0.704737 112.495 0.63628 113.026 0.554131C113.584 0.471982 114.142 0.430908 114.7 0.430908C115.895 0.430908 116.745 0.636279 117.25 1.04702C117.781 1.45777 118.047 2.26556 118.047 3.4704V16.6963C118.047 18.175 117.808 19.5167 117.33 20.7216C116.851 21.899 116.161 22.9122 115.257 23.7611C114.354 24.6099 113.252 25.2671 111.95 25.7326C110.648 26.1982 109.174 26.4309 107.527 26.4309Z" fill="#0000B8"/>
</svg>
